<?xml version="1.0" standalone="no"?><!-- Generator: Gravit.io --><svg xmlns="http://www.w3.org/2000/svg" xmlns:xlink="http://www.w3.org/1999/xlink" style="isolation:isolate" viewBox="0 0 1118 98.235" width="1118" height="98.235"><defs><clipPath id="_clipPath_Frk3DnUrItr0GmmuDTSkSRtDvKvqAa2u"><rect width="1118" height="98.235"/></clipPath></defs><g clip-path="url(#_clipPath_Frk3DnUrItr0GmmuDTSkSRtDvKvqAa2u)"><g filter="url(#fPB92lbdqlqS5T2DpWRXeOWQk9Sbx1fp)"><path d=" M 7.276 11.786 L 14.035 7.692 L 33.265 7.026 Q 33.424 9.469 31.932 10.453 Q 29.679 10.612 29.552 12.166 Q 29.425 13.721 27.839 53.101 Q 27.807 54.338 29.171 54.338 Q 30.536 54.338 56.588 53.767 L 47.544 50.055 Q 37.104 45.358 37.454 36.632 Q 37.803 27.906 47.068 20.829 Q 59.634 11.659 70.582 18.449 Q 72.422 17.751 74.104 16.26 Q 75.786 15.086 77.055 17.497 Q 78.324 19.909 83.909 30.063 Q 84.703 32.126 83.148 33.11 Q 81.593 34.093 76.865 36.727 Q 74.993 36.695 74.199 35.014 L 72.866 33.586 Q 62.68 25.589 56.874 27.398 Q 55.128 28.826 55.636 31.11 Q 57.73 32.983 58.968 33.395 Q 60.205 33.808 72.39 40.249 Q 83.56 46.278 84.956 53.101 Q 86.353 59.923 85.147 67.666 C 84.909 76.186 77.483 82.088 76.008 83.278 C 74.532 84.468 72.533 86.753 66.869 86.991 C 61.205 87.229 57.411 84.836 54.303 83.849 L 51.828 83.278 L 50.971 83.088 L 51.352 84.135 L 51.352 84.801 Q 51.479 85.912 50.686 87.276 Q 49.956 91.116 47.068 91.179 Q 45.831 91.497 44.022 88.419 L 40.024 81.469 L 37.073 76.614 L 36.311 75.091 Q 35.899 74.234 36.692 72.997 Q 37.485 71.759 37.834 71.283 L 37.834 71.093 L 4.04 71.854 Q 3.722 69.633 5.944 68.903 Q 8.165 68.174 8.133 66.619 L 10.513 16.165 Q 10.196 15.784 9.371 15.498 Q 8.546 15.213 8.133 15.118 L 7.276 14.546 L 7.276 11.786 Z  M 44.593 71.093 L 52.209 71.093 Q 53.415 70.871 53.351 71.854 L 52.495 73.187 Q 53.097 75.377 55.065 74.615 Q 57.73 71.569 59.253 68.999 Q 60.777 66.428 65.06 58.908 Q 71.692 62.557 71.915 67.666 Q 71.248 73.441 65.917 75.948 Q 63.569 77.185 56.969 76.329 Q 51.162 74.742 48.401 73.378 Q 45.64 72.013 44.593 71.093 Z " fill-rule="evenodd" fill="rgb(30,29,21)"/><g><path d=" M 72.866 18.449 L 73.533 17.783 L 74.58 17.021 Q 75.157 16.873 75.342 17.021 Q 75.526 17.17 82.672 30.254 Q 83.011 31.253 82.767 31.967 L 81.339 32.729 L 80.958 32.729 L 75.437 28.731 L 71.343 25.684 L 68.107 23.495 Q 54.747 19.005 52.78 28.064 Q 52.225 31.539 60.301 35.394 Q 68.376 39.25 76.008 44.057 Q 79.784 46.627 83.148 51.673 Q 84.512 54.434 84.48 58.908 Q 84.449 63.382 83.909 67.666 Q 81.72 73.457 78.578 75.567 Q 67.464 84.944 56.874 81.755 L 51.162 79.946 Q 48.377 80.089 50.591 83.088 Q 51.233 85.658 50.305 86.515 Q 49.282 86.419 48.496 84.991 Q 47.711 83.564 40.5 70.522 Q 39.096 68.523 41.071 66.999 Q 41.571 66.761 41.928 67.475 Q 42.285 68.189 44.403 72.426 L 44.974 73.187 Q 64.37 83.111 73.533 71.283 Q 80.363 61.097 68.107 52.625 L 55.636 45.771 L 50.495 43.296 Q 41.071 37.655 41.452 30.92 Q 41.833 24.185 52.495 18.83 Q 61.276 14.404 68.297 18.259 Q 71.724 20.282 73.533 22.162 Q 74.437 22.138 74.294 21.115 Q 74.152 20.092 72.866 18.449 Z " fill="rgb(241,226,203)"/><path d=" M 14.035 8.454 L 32.218 7.883 Q 31.754 9.18 31.266 9.311 C 30.778 9.441 28.065 10.001 27.934 12.833 Q 27.803 15.665 26.125 52.72 Q 26.351 55.374 28.886 55.385 Q 31.42 55.397 61.538 54.624 Q 63.561 54.636 64.965 52.434 Q 66.369 50.233 65.727 51.102 L 68.107 52.625 L 57.73 69.189 Q 56.921 69.641 56.493 69.189 C 56.064 68.737 55.684 69.022 55.826 67.666 L 56.588 66.143 Q 57.314 64.643 56.017 64.048 L 47.068 64.144 L 41.452 64.144 L 11.655 64.81 Q 11.965 62.228 13.75 61.859 Q 15.475 61.192 15.368 58.717 Q 15.261 56.242 17.653 12.833 Q 17.593 11.464 15.273 11.405 Q 14.095 11.084 14.035 10.072 Q 13.976 9.061 14.035 8.454 Z " fill="rgb(241,226,203)"/></g><g filter="url(#417xHV6ijMQAt6fsL7HY3MLgtiEgupww)"><defs><filter id="IGirXJ5VyCMVubfUumgnZctXh2KAIpff" x="-200%" y="-200%" width="400%" height="400%" filterUnits="objectBoundingBox" color-interpolation-filters="sRGB"><feOffset xmlns="http://www.w3.org/2000/svg" in="SourceGraphic" dx="0.1" dy="0.1"/><feGaussianBlur xmlns="http://www.w3.org/2000/svg" stdDeviation="2.146804531419514" result="pf_100_offsetBlur"/><feComposite xmlns="http://www.w3.org/2000/svg" in="SourceGraphic" in2="pf_100_offsetBlur" result="pf_100_inverse" operator="out"/><feFlood xmlns="http://www.w3.org/2000/svg" flood-color="#514336" flood-opacity="1" result="pf_100_color"/><feComposite xmlns="http://www.w3.org/2000/svg" in="pf_100_color" in2="pf_100_inverse" operator="in" result="pf_100_shadow"/><feComposite xmlns="http://www.w3.org/2000/svg" in="pf_100_shadow" in2="SourceGraphic" operator="over"/></filter></defs><g filter="url(#IGirXJ5VyCMVubfUumgnZctXh2KAIpff)"><circle vector-effect="non-scaling-stroke" cx="21.888941554419162" cy="20.02012923123125" r="0.5235787771056373" fill="rgb(178,177,175)"/></g><defs><filter id="ogZRFSCtQNow06bEgy7evvSn7cWvSWRc" x="-200%" y="-200%" width="400%" height="400%" filterUnits="objectBoundingBox" color-interpolation-filters="sRGB"><feOffset xmlns="http://www.w3.org/2000/svg" in="SourceGraphic" dx="0.1" dy="0.1"/><feGaussianBlur xmlns="http://www.w3.org/2000/svg" stdDeviation="2.146804531419514" result="pf_100_offsetBlur"/><feComposite xmlns="http://www.w3.org/2000/svg" in="SourceGraphic" in2="pf_100_offsetBlur" result="pf_100_inverse" operator="out"/><feFlood xmlns="http://www.w3.org/2000/svg" flood-color="#514336" flood-opacity="1" result="pf_100_color"/><feComposite xmlns="http://www.w3.org/2000/svg" in="pf_100_color" in2="pf_100_inverse" operator="in" result="pf_100_shadow"/><feComposite xmlns="http://www.w3.org/2000/svg" in="pf_100_shadow" in2="SourceGraphic" operator="over"/></filter></defs><g filter="url(#ogZRFSCtQNow06bEgy7evvSn7cWvSWRc)"><circle vector-effect="non-scaling-stroke" cx="48.16307655099298" cy="30.872489338511834" r="0.5235787771056408" fill="rgb(147,145,147)"/></g><defs><filter id="fAKZXgxftCZ0bgbFuioUCxQRBAdDFarA" x="-200%" y="-200%" width="400%" height="400%" filterUnits="objectBoundingBox" color-interpolation-filters="sRGB"><feOffset xmlns="http://www.w3.org/2000/svg" in="SourceGraphic" dx="0.1" dy="0.1"/><feGaussianBlur xmlns="http://www.w3.org/2000/svg" stdDeviation="2.146804531419514" result="pf_100_offsetBlur"/><feComposite xmlns="http://www.w3.org/2000/svg" in="SourceGraphic" in2="pf_100_offsetBlur" result="pf_100_inverse" operator="out"/><feFlood xmlns="http://www.w3.org/2000/svg" flood-color="#514336" flood-opacity="1" result="pf_100_color"/><feComposite xmlns="http://www.w3.org/2000/svg" in="pf_100_color" in2="pf_100_inverse" operator="in" result="pf_100_shadow"/><feComposite xmlns="http://www.w3.org/2000/svg" in="pf_100_shadow" in2="SourceGraphic" operator="over"/></filter></defs><g filter="url(#fAKZXgxftCZ0bgbFuioUCxQRBAdDFarA)"><circle vector-effect="non-scaling-stroke" cx="78.0546649166603" cy="27.54062439329418" r="0.5235787771056408" fill="rgb(91,84,74)"/></g><defs><filter id="1GMTAIbxzKEUt0Lb186Lp3M49KuejTO5" x="-200%" y="-200%" width="400%" height="400%" filterUnits="objectBoundingBox" color-interpolation-filters="sRGB"><feOffset xmlns="http://www.w3.org/2000/svg" in="SourceGraphic" dx="0.1" dy="0.1"/><feGaussianBlur xmlns="http://www.w3.org/2000/svg" stdDeviation="2.146804531419514" result="pf_100_offsetBlur"/><feComposite xmlns="http://www.w3.org/2000/svg" in="SourceGraphic" in2="pf_100_offsetBlur" result="pf_100_inverse" operator="out"/><feFlood xmlns="http://www.w3.org/2000/svg" flood-color="#514336" flood-opacity="1" result="pf_100_color"/><feComposite xmlns="http://www.w3.org/2000/svg" in="pf_100_color" in2="pf_100_inverse" operator="in" result="pf_100_shadow"/><feComposite xmlns="http://www.w3.org/2000/svg" in="pf_100_shadow" in2="SourceGraphic" operator="over"/></filter></defs><g filter="url(#1GMTAIbxzKEUt0Lb186Lp3M49KuejTO5)"><circle vector-effect="non-scaling-stroke" cx="52.35170676783794" cy="61.81123525839042" r="0.5235787771056408" fill="rgb(78,73,69)"/></g><defs><filter id="8lH4TN2RktRtrc8Hfh7NbAyshOWWEKEg" x="-200%" y="-200%" width="400%" height="400%" filterUnits="objectBoundingBox" color-interpolation-filters="sRGB"><feOffset xmlns="http://www.w3.org/2000/svg" in="SourceGraphic" dx="0.1" dy="0.1"/><feGaussianBlur xmlns="http://www.w3.org/2000/svg" stdDeviation="2.146804531419514" result="pf_100_offsetBlur"/><feComposite xmlns="http://www.w3.org/2000/svg" in="SourceGraphic" in2="pf_100_offsetBlur" result="pf_100_inverse" operator="out"/><feFlood xmlns="http://www.w3.org/2000/svg" flood-color="#514336" flood-opacity="1" result="pf_100_color"/><feComposite xmlns="http://www.w3.org/2000/svg" in="pf_100_color" in2="pf_100_inverse" operator="in" result="pf_100_shadow"/><feComposite xmlns="http://www.w3.org/2000/svg" in="pf_100_shadow" in2="SourceGraphic" operator="over"/></filter></defs><g filter="url(#8lH4TN2RktRtrc8Hfh7NbAyshOWWEKEg)"><circle vector-effect="non-scaling-stroke" cx="52.066118343962295" cy="78.75614840835442" r="0.5235787771056408" fill="rgb(78,73,69)"/></g><defs><filter id="OB4JG77LryD84RkskuHma6qhBL3cTuzu" x="-200%" y="-200%" width="400%" height="400%" filterUnits="objectBoundingBox" color-interpolation-filters="sRGB"><feOffset xmlns="http://www.w3.org/2000/svg" in="SourceGraphic" dx="0.1" dy="0.1"/><feGaussianBlur xmlns="http://www.w3.org/2000/svg" stdDeviation="2.146804531419514" result="pf_100_offsetBlur"/><feComposite xmlns="http://www.w3.org/2000/svg" in="SourceGraphic" in2="pf_100_offsetBlur" result="pf_100_inverse" operator="out"/><feFlood xmlns="http://www.w3.org/2000/svg" flood-color="#514336" flood-opacity="1" result="pf_100_color"/><feComposite xmlns="http://www.w3.org/2000/svg" in="pf_100_color" in2="pf_100_inverse" operator="in" result="pf_100_shadow"/><feComposite xmlns="http://www.w3.org/2000/svg" in="pf_100_shadow" in2="SourceGraphic" operator="over"/></filter></defs><g filter="url(#OB4JG77LryD84RkskuHma6qhBL3cTuzu)"><circle vector-effect="non-scaling-stroke" cx="77.1027035037409" cy="64.1911387906888" r="0.5235787771056408" fill="rgb(156,146,140)"/></g><defs><filter id="RIsuBnE5aZP7FcLBfkAwK6Bk3ve4hDjV" x="-200%" y="-200%" width="400%" height="400%" filterUnits="objectBoundingBox" color-interpolation-filters="sRGB"><feOffset xmlns="http://www.w3.org/2000/svg" in="SourceGraphic" dx="0.1" dy="0.1"/><feGaussianBlur xmlns="http://www.w3.org/2000/svg" stdDeviation="2.146804531419514" result="pf_100_offsetBlur"/><feComposite xmlns="http://www.w3.org/2000/svg" in="SourceGraphic" in2="pf_100_offsetBlur" result="pf_100_inverse" operator="out"/><feFlood xmlns="http://www.w3.org/2000/svg" flood-color="#514336" flood-opacity="1" result="pf_100_color"/><feComposite xmlns="http://www.w3.org/2000/svg" in="pf_100_color" in2="pf_100_inverse" operator="in" result="pf_100_shadow"/><feComposite xmlns="http://www.w3.org/2000/svg" in="pf_100_shadow" in2="SourceGraphic" operator="over"/></filter></defs><g filter="url(#RIsuBnE5aZP7FcLBfkAwK6Bk3ve4hDjV)"><circle vector-effect="non-scaling-stroke" cx="21.03217628279181" cy="60.1929008564275" r="0.5235787771056373" fill="rgb(183,181,180)"/></g></g><defs><filter id="417xHV6ijMQAt6fsL7HY3MLgtiEgupww" x="-200%" y="-200%" width="400%" height="400%" filterUnits="objectBoundingBox" color-interpolation-filters="sRGB"><feOffset xmlns="http://www.w3.org/2000/svg" in="SourceGraphic" dx="0" dy="0"/><feGaussianBlur xmlns="http://www.w3.org/2000/svg" stdDeviation="2.146804531419514" result="pf_100_offsetBlur"/><feComposite xmlns="http://www.w3.org/2000/svg" in="SourceGraphic" in2="pf_100_offsetBlur" result="pf_100_inverse" operator="out"/><feFlood xmlns="http://www.w3.org/2000/svg" flood-color="#000000" flood-opacity="0.5" result="pf_100_color"/><feComposite xmlns="http://www.w3.org/2000/svg" in="pf_100_color" in2="pf_100_inverse" operator="in" result="pf_100_shadow"/><feComposite xmlns="http://www.w3.org/2000/svg" in="pf_100_shadow" in2="SourceGraphic" operator="over"/></filter></defs></g><defs><filter id="fPB92lbdqlqS5T2DpWRXeOWQk9Sbx1fp" x="-200%" y="-200%" width="400%" height="400%" filterUnits="objectBoundingBox" color-interpolation-filters="sRGB"><feGaussianBlur xmlns="http://www.w3.org/2000/svg" in="SourceGraphic" stdDeviation="0.42936090628390283"/><feOffset xmlns="http://www.w3.org/2000/svg" dx="1" dy="1" result="pf_100_offsetBlur"/><feFlood xmlns="http://www.w3.org/2000/svg" flood-color="#000000" flood-opacity="0.65"/><feComposite xmlns="http://www.w3.org/2000/svg" in2="pf_100_offsetBlur" operator="in" result="pf_100_dropShadow"/><feBlend xmlns="http://www.w3.org/2000/svg" in="SourceGraphic" in2="pf_100_dropShadow" mode="normal"/></filter></defs><path d=" M 843.849 36.186 L 843.849 36.186 L 843.849 36.186 Q 838.369 36.186 835.363 40.304 L 835.363 40.304 L 835.363 40.304 Q 832.357 44.421 832.357 51.78 L 832.357 51.78 L 832.357 51.78 Q 832.357 67.092 843.849 67.092 L 843.849 67.092 L 843.849 67.092 Q 848.671 67.092 855.528 64.681 L 855.528 64.681 L 855.528 72.822 L 855.528 72.822 Q 849.892 75.171 842.94 75.171 L 842.94 75.171 L 842.94 75.171 Q 832.952 75.171 827.66 69.112 L 827.66 69.112 L 827.66 69.112 Q 822.368 63.053 822.368 51.717 L 822.368 51.717 L 822.368 51.717 Q 822.368 44.578 824.967 39.208 L 824.967 39.208 L 824.967 39.208 Q 827.566 33.837 832.435 30.972 L 832.435 30.972 L 832.435 30.972 Q 837.304 28.107 843.849 28.107 L 843.849 28.107 L 843.849 28.107 Q 850.518 28.107 857.251 31.332 L 857.251 31.332 L 854.119 39.223 L 854.119 39.223 Q 851.552 38.002 848.953 37.094 L 848.953 37.094 L 848.953 37.094 Q 846.354 36.186 843.849 36.186 Z  M 870.699 56.978 L 870.699 56.978 L 870.699 56.978 Q 870.699 62.176 872.406 64.837 L 872.406 64.837 L 872.406 64.837 Q 874.112 67.499 877.964 67.499 L 877.964 67.499 L 877.964 67.499 Q 881.784 67.499 883.459 64.853 L 883.459 64.853 L 883.459 64.853 Q 885.135 62.207 885.135 56.978 L 885.135 56.978 L 885.135 56.978 Q 885.135 51.78 883.444 49.181 L 883.444 49.181 L 883.444 49.181 Q 881.753 46.582 877.901 46.582 L 877.901 46.582 L 877.901 46.582 Q 874.081 46.582 872.39 49.165 L 872.39 49.165 L 872.39 49.165 Q 870.699 51.749 870.699 56.978 Z  M 894.904 56.978 L 894.904 56.978 L 894.904 56.978 Q 894.904 65.526 890.395 70.349 L 890.395 70.349 L 890.395 70.349 Q 885.886 75.171 877.839 75.171 L 877.839 75.171 L 877.839 75.171 Q 872.797 75.171 868.946 72.963 L 868.946 72.963 L 868.946 72.963 Q 865.094 70.756 863.028 66.622 L 863.028 66.622 L 863.028 66.622 Q 860.961 62.489 860.961 56.978 L 860.961 56.978 L 860.961 56.978 Q 860.961 48.398 865.439 43.638 L 865.439 43.638 L 865.439 43.638 Q 869.916 38.879 878.027 38.879 L 878.027 38.879 L 878.027 38.879 Q 883.068 38.879 886.919 41.071 L 886.919 41.071 L 886.919 41.071 Q 890.771 43.263 892.838 47.365 L 892.838 47.365 L 892.838 47.365 Q 894.904 51.467 894.904 56.978 Z  M 932.715 56.978 L 932.715 74.545 L 923.164 74.545 L 923.164 54.097 L 923.164 54.097 Q 923.164 50.308 921.896 48.414 L 921.896 48.414 L 921.896 48.414 Q 920.628 46.519 917.904 46.519 L 917.904 46.519 L 917.904 46.519 Q 914.24 46.519 912.58 49.212 L 912.58 49.212 L 912.58 49.212 Q 910.921 51.905 910.921 58.074 L 910.921 58.074 L 910.921 74.545 L 901.37 74.545 L 901.37 39.536 L 908.666 39.536 L 909.95 44.014 L 910.482 44.014 L 910.482 44.014 Q 911.891 41.603 914.553 40.241 L 914.553 40.241 L 914.553 40.241 Q 917.215 38.879 920.659 38.879 L 920.659 38.879 L 920.659 38.879 Q 928.519 38.879 931.306 44.014 L 931.306 44.014 L 932.151 44.014 L 932.151 44.014 Q 933.56 41.572 936.3 40.225 L 936.3 40.225 L 936.3 40.225 Q 939.04 38.879 942.484 38.879 L 942.484 38.879 L 942.484 38.879 Q 948.434 38.879 951.487 41.932 L 951.487 41.932 L 951.487 41.932 Q 954.54 44.985 954.54 51.717 L 954.54 51.717 L 954.54 74.545 L 944.958 74.545 L 944.958 54.097 L 944.958 54.097 Q 944.958 50.308 943.69 48.414 L 943.69 48.414 L 943.69 48.414 Q 942.422 46.519 939.697 46.519 L 939.697 46.519 L 939.697 46.519 Q 936.19 46.519 934.453 49.024 L 934.453 49.024 L 934.453 49.024 Q 932.715 51.529 932.715 56.978 L 932.715 56.978 L 932.715 56.978 Z  M 982.142 75.171 L 982.142 75.171 L 982.142 75.171 Q 975.973 75.171 972.466 70.693 L 972.466 70.693 L 971.965 70.693 L 971.965 70.693 Q 972.466 75.077 972.466 75.766 L 972.466 75.766 L 972.466 89.951 L 962.916 89.951 L 962.916 39.536 L 970.682 39.536 L 972.028 44.077 L 972.466 44.077 L 972.466 44.077 Q 975.817 38.879 982.393 38.879 L 982.393 38.879 L 982.393 38.879 Q 988.593 38.879 992.1 43.67 L 992.1 43.67 L 992.1 43.67 Q 995.607 48.461 995.607 56.978 L 995.607 56.978 L 995.607 56.978 Q 995.607 62.583 993.963 66.716 L 993.963 66.716 L 993.963 66.716 Q 992.319 70.85 989.282 73.01 L 989.282 73.01 L 989.282 73.01 Q 986.244 75.171 982.142 75.171 Z  M 979.324 46.519 L 979.324 46.519 L 979.324 46.519 Q 975.786 46.519 974.157 48.696 L 974.157 48.696 L 974.157 48.696 Q 972.529 50.872 972.466 55.882 L 972.466 55.882 L 972.466 56.915 L 972.466 56.915 Q 972.466 62.552 974.142 64.994 L 974.142 64.994 L 974.142 64.994 Q 975.817 67.436 979.449 67.436 L 979.449 67.436 L 979.449 67.436 Q 985.868 67.436 985.868 56.853 L 985.868 56.853 L 985.868 56.853 Q 985.868 51.686 984.287 49.103 L 984.287 49.103 L 984.287 49.103 Q 982.706 46.519 979.324 46.519 Z  M 1030.975 74.545 L 1024.305 74.545 L 1022.457 69.785 L 1022.207 69.785 L 1022.207 69.785 Q 1019.796 72.822 1017.244 73.997 L 1017.244 73.997 L 1017.244 73.997 Q 1014.692 75.171 1010.59 75.171 L 1010.59 75.171 L 1010.59 75.171 Q 1005.548 75.171 1002.652 72.29 L 1002.652 72.29 L 1002.652 72.29 Q 999.755 69.409 999.755 64.086 L 999.755 64.086 L 999.755 64.086 Q 999.755 58.512 1003.654 55.866 L 1003.654 55.866 L 1003.654 55.866 Q 1007.552 53.22 1015.412 52.938 L 1015.412 52.938 L 1021.487 52.751 L 1021.487 51.216 L 1021.487 51.216 Q 1021.487 45.893 1016.038 45.893 L 1016.038 45.893 L 1016.038 45.893 Q 1011.842 45.893 1006.175 48.429 L 1006.175 48.429 L 1003.012 41.979 L 1003.012 41.979 Q 1009.055 38.816 1016.414 38.816 L 1016.414 38.816 L 1016.414 38.816 Q 1023.46 38.816 1027.217 41.885 L 1027.217 41.885 L 1027.217 41.885 Q 1030.975 44.954 1030.975 51.216 L 1030.975 51.216 L 1030.975 74.545 L 1030.975 74.545 Z  M 1021.487 61.205 L 1021.487 58.324 L 1017.792 58.45 L 1017.792 58.45 Q 1013.627 58.575 1011.592 59.953 L 1011.592 59.953 L 1011.592 59.953 Q 1009.556 61.33 1009.556 64.149 L 1009.556 64.149 L 1009.556 64.149 Q 1009.556 68.188 1014.191 68.188 L 1014.191 68.188 L 1014.191 68.188 Q 1017.51 68.188 1019.498 66.278 L 1019.498 66.278 L 1019.498 66.278 Q 1021.487 64.368 1021.487 61.205 L 1021.487 61.205 L 1021.487 61.205 Z  M 1071.697 51.717 L 1071.697 74.545 L 1062.147 74.545 L 1062.147 54.097 L 1062.147 54.097 Q 1062.147 50.308 1060.8 48.414 L 1060.8 48.414 L 1060.8 48.414 Q 1059.454 46.519 1056.51 46.519 L 1056.51 46.519 L 1056.51 46.519 Q 1052.502 46.519 1050.717 49.197 L 1050.717 49.197 L 1050.717 49.197 Q 1048.932 51.874 1048.932 58.074 L 1048.932 58.074 L 1048.932 74.545 L 1039.382 74.545 L 1039.382 39.536 L 1046.678 39.536 L 1047.962 44.014 L 1048.494 44.014 L 1048.494 44.014 Q 1050.091 41.478 1052.894 40.178 L 1052.894 40.178 L 1052.894 40.178 Q 1055.696 38.879 1059.266 38.879 L 1059.266 38.879 L 1059.266 38.879 Q 1065.372 38.879 1068.534 42.182 L 1068.534 42.182 L 1068.534 42.182 Q 1071.697 45.486 1071.697 51.717 L 1071.697 51.717 L 1071.697 51.717 Z  M 1088.997 74.294 L 1075.094 39.536 L 1085.553 39.536 L 1092.16 59.232 L 1092.16 59.232 Q 1093.005 61.8 1093.319 65.307 L 1093.319 65.307 L 1093.506 65.307 L 1093.506 65.307 Q 1093.851 62.082 1094.853 59.232 L 1094.853 59.232 L 1101.335 39.536 L 1111.574 39.536 L 1096.763 79.022 L 1096.763 79.022 Q 1094.728 84.502 1090.954 87.226 L 1090.954 87.226 L 1090.954 87.226 Q 1087.181 89.951 1082.14 89.951 L 1082.14 89.951 L 1082.14 89.951 Q 1079.666 89.951 1077.286 89.418 L 1077.286 89.418 L 1077.286 81.84 L 1077.286 81.84 Q 1079.008 82.248 1081.044 82.248 L 1081.044 82.248 L 1081.044 82.248 Q 1083.58 82.248 1085.475 80.698 L 1085.475 80.698 L 1085.475 80.698 Q 1087.369 79.148 1088.434 76.016 L 1088.434 76.016 L 1088.997 74.294 L 1088.997 74.294 Z  M 679.926 61.831 L 679.926 61.831 L 679.926 61.831 Q 679.926 68.031 675.464 71.601 L 675.464 71.601 L 675.464 71.601 Q 671.002 75.171 663.048 75.171 L 663.048 75.171 L 663.048 75.171 Q 655.721 75.171 650.085 72.415 L 650.085 72.415 L 650.085 63.397 L 650.085 63.397 Q 654.719 65.464 657.929 66.309 L 657.929 66.309 L 657.929 66.309 Q 661.138 67.155 663.8 67.155 L 663.8 67.155 L 663.8 67.155 Q 666.994 67.155 668.7 65.933 L 668.7 65.933 L 668.7 65.933 Q 670.407 64.712 670.407 62.301 L 670.407 62.301 L 670.407 62.301 Q 670.407 60.955 669.655 59.906 L 669.655 59.906 L 669.655 59.906 Q 668.904 58.857 667.448 57.886 L 667.448 57.886 L 667.448 57.886 Q 665.992 56.915 661.514 54.786 L 661.514 54.786 L 661.514 54.786 Q 657.318 52.813 655.22 50.997 L 655.22 50.997 L 655.22 50.997 Q 653.122 49.181 651.87 46.77 L 651.87 46.77 L 651.87 46.77 Q 650.617 44.359 650.617 41.133 L 650.617 41.133 L 650.617 41.133 Q 650.617 35.059 654.735 31.583 L 654.735 31.583 L 654.735 31.583 Q 658.852 28.107 666.117 28.107 L 666.117 28.107 L 666.117 28.107 Q 669.687 28.107 672.928 28.953 L 672.928 28.953 L 672.928 28.953 Q 676.169 29.798 679.707 31.332 L 679.707 31.332 L 676.576 38.879 L 676.576 38.879 Q 672.912 37.376 670.517 36.781 L 670.517 36.781 L 670.517 36.781 Q 668.121 36.186 665.804 36.186 L 665.804 36.186 L 665.804 36.186 Q 663.048 36.186 661.577 37.47 L 661.577 37.47 L 661.577 37.47 Q 660.105 38.754 660.105 40.82 L 660.105 40.82 L 660.105 40.82 Q 660.105 42.104 660.7 43.059 L 660.7 43.059 L 660.7 43.059 Q 661.295 44.014 662.594 44.907 L 662.594 44.907 L 662.594 44.907 Q 663.894 45.799 668.747 48.116 L 668.747 48.116 L 668.747 48.116 Q 675.167 51.185 677.546 54.269 L 677.546 54.269 L 677.546 54.269 Q 679.926 57.354 679.926 61.831 Z  M 714.95 74.545 L 708.28 74.545 L 706.432 69.785 L 706.182 69.785 L 706.182 69.785 Q 703.771 72.822 701.219 73.997 L 701.219 73.997 L 701.219 73.997 Q 698.667 75.171 694.565 75.171 L 694.565 75.171 L 694.565 75.171 Q 689.523 75.171 686.627 72.29 L 686.627 72.29 L 686.627 72.29 Q 683.73 69.409 683.73 64.086 L 683.73 64.086 L 683.73 64.086 Q 683.73 58.512 687.629 55.866 L 687.629 55.866 L 687.629 55.866 Q 691.527 53.22 699.387 52.938 L 699.387 52.938 L 705.462 52.751 L 705.462 51.216 L 705.462 51.216 Q 705.462 45.893 700.013 45.893 L 700.013 45.893 L 700.013 45.893 Q 695.817 45.893 690.15 48.429 L 690.15 48.429 L 686.987 41.979 L 686.987 41.979 Q 693.03 38.816 700.389 38.816 L 700.389 38.816 L 700.389 38.816 Q 707.434 38.816 711.192 41.885 L 711.192 41.885 L 711.192 41.885 Q 714.95 44.954 714.95 51.216 L 714.95 51.216 L 714.95 74.545 L 714.95 74.545 Z  M 705.462 61.205 L 705.462 58.324 L 701.767 58.45 L 701.767 58.45 Q 697.602 58.575 695.567 59.953 L 695.567 59.953 L 695.567 59.953 Q 693.531 61.33 693.531 64.149 L 693.531 64.149 L 693.531 64.149 Q 693.531 68.188 698.166 68.188 L 698.166 68.188 L 698.166 68.188 Q 701.485 68.188 703.473 66.278 L 703.473 66.278 L 703.473 66.278 Q 705.462 64.368 705.462 61.205 L 705.462 61.205 L 705.462 61.205 Z  M 732.907 25.821 L 732.907 74.545 L 723.357 74.545 L 723.357 25.821 L 732.907 25.821 L 732.907 25.821 Z  M 756.001 45.674 L 756.001 45.674 L 756.001 45.674 Q 752.963 45.674 751.241 47.6 L 751.241 47.6 L 751.241 47.6 Q 749.519 49.525 749.268 53.064 L 749.268 53.064 L 762.67 53.064 L 762.67 53.064 Q 762.608 49.525 760.823 47.6 L 760.823 47.6 L 760.823 47.6 Q 759.038 45.674 756.001 45.674 Z  M 757.347 75.171 L 757.347 75.171 L 757.347 75.171 Q 748.892 75.171 744.133 70.505 L 744.133 70.505 L 744.133 70.505 Q 739.373 65.839 739.373 57.291 L 739.373 57.291 L 739.373 57.291 Q 739.373 48.492 743.773 43.685 L 743.773 43.685 L 743.773 43.685 Q 748.172 38.879 755.938 38.879 L 755.938 38.879 L 755.938 38.879 Q 763.359 38.879 767.492 43.106 L 767.492 43.106 L 767.492 43.106 Q 771.626 47.333 771.626 54.786 L 771.626 54.786 L 771.626 59.42 L 749.049 59.42 L 749.049 59.42 Q 749.206 63.491 751.46 65.777 L 751.46 65.777 L 751.46 65.777 Q 753.715 68.063 757.785 68.063 L 757.785 68.063 L 757.785 68.063 Q 760.948 68.063 763.766 67.405 L 763.766 67.405 L 763.766 67.405 Q 766.584 66.748 769.653 65.307 L 769.653 65.307 L 769.653 72.697 L 769.653 72.697 Q 767.148 73.95 764.298 74.56 L 764.298 74.56 L 764.298 74.56 Q 761.449 75.171 757.347 75.171 Z  M 802.391 64.149 L 802.391 64.149 L 802.391 64.149 Q 802.391 69.534 798.649 72.353 L 798.649 72.353 L 798.649 72.353 Q 794.907 75.171 787.454 75.171 L 787.454 75.171 L 787.454 75.171 Q 783.634 75.171 780.941 74.654 L 780.941 74.654 L 780.941 74.654 Q 778.248 74.137 775.9 73.135 L 775.9 73.135 L 775.9 65.245 L 775.9 65.245 Q 778.561 66.497 781.896 67.343 L 781.896 67.343 L 781.896 67.343 Q 785.231 68.188 787.767 68.188 L 787.767 68.188 L 787.767 68.188 Q 792.965 68.188 792.965 65.182 L 792.965 65.182 L 792.965 65.182 Q 792.965 64.055 792.276 63.35 L 792.276 63.35 L 792.276 63.35 Q 791.588 62.646 789.897 61.753 L 789.897 61.753 L 789.897 61.753 Q 788.206 60.861 785.388 59.671 L 785.388 59.671 L 785.388 59.671 Q 781.348 57.98 779.454 56.539 L 779.454 56.539 L 779.454 56.539 Q 777.559 55.099 776.698 53.236 L 776.698 53.236 L 776.698 53.236 Q 775.837 51.373 775.837 48.649 L 775.837 48.649 L 775.837 48.649 Q 775.837 43.983 779.454 41.431 L 779.454 41.431 L 779.454 41.431 Q 783.07 38.879 789.709 38.879 L 789.709 38.879 L 789.709 38.879 Q 796.034 38.879 802.015 41.634 L 802.015 41.634 L 799.134 48.523 L 799.134 48.523 Q 796.504 47.396 794.218 46.676 L 794.218 46.676 L 794.218 46.676 Q 791.932 45.956 789.552 45.956 L 789.552 45.956 L 789.552 45.956 Q 785.325 45.956 785.325 48.241 L 785.325 48.241 L 785.325 48.241 Q 785.325 49.525 786.687 50.465 L 786.687 50.465 L 786.687 50.465 Q 788.049 51.404 792.652 53.252 L 792.652 53.252 L 792.652 53.252 Q 796.754 54.911 798.664 56.352 L 798.664 56.352 L 798.664 56.352 Q 800.574 57.792 801.483 59.671 L 801.483 59.671 L 801.483 59.671 Q 802.391 61.55 802.391 64.149 Z  M 480.025 74.545 L 451.749 74.545 L 451.749 28.765 L 461.456 28.765 L 461.456 66.528 L 480.025 66.528 L 480.025 74.545 L 480.025 74.545 Z  M 493.411 56.978 L 493.411 56.978 L 493.411 56.978 Q 493.411 62.176 495.118 64.837 L 495.118 64.837 L 495.118 64.837 Q 496.824 67.499 500.676 67.499 L 500.676 67.499 L 500.676 67.499 Q 504.496 67.499 506.171 64.853 L 506.171 64.853 L 506.171 64.853 Q 507.846 62.207 507.846 56.978 L 507.846 56.978 L 507.846 56.978 Q 507.846 51.78 506.155 49.181 L 506.155 49.181 L 506.155 49.181 Q 504.465 46.582 500.613 46.582 L 500.613 46.582 L 500.613 46.582 Q 496.793 46.582 495.102 49.165 L 495.102 49.165 L 495.102 49.165 Q 493.411 51.749 493.411 56.978 Z  M 517.616 56.978 L 517.616 56.978 L 517.616 56.978 Q 517.616 65.526 513.107 70.349 L 513.107 70.349 L 513.107 70.349 Q 508.598 75.171 500.55 75.171 L 500.55 75.171 L 500.55 75.171 Q 495.509 75.171 491.657 72.963 L 491.657 72.963 L 491.657 72.963 Q 487.806 70.756 485.739 66.622 L 485.739 66.622 L 485.739 66.622 Q 483.673 62.489 483.673 56.978 L 483.673 56.978 L 483.673 56.978 Q 483.673 48.398 488.15 43.638 L 488.15 43.638 L 488.15 43.638 Q 492.628 38.879 500.738 38.879 L 500.738 38.879 L 500.738 38.879 Q 505.78 38.879 509.631 41.071 L 509.631 41.071 L 509.631 41.071 Q 513.483 43.263 515.549 47.365 L 515.549 47.365 L 515.549 47.365 Q 517.616 51.467 517.616 56.978 Z  M 542.338 39.536 L 554.55 39.536 L 554.55 44.39 L 549.07 45.799 L 549.07 45.799 Q 550.573 48.148 550.573 51.06 L 550.573 51.06 L 550.573 51.06 Q 550.573 56.696 546.643 59.843 L 546.643 59.843 L 546.643 59.843 Q 542.713 62.99 535.73 62.99 L 535.73 62.99 L 534.008 62.896 L 532.599 62.739 L 532.599 62.739 Q 531.127 63.867 531.127 65.245 L 531.127 65.245 L 531.127 65.245 Q 531.127 67.311 536.388 67.311 L 536.388 67.311 L 542.338 67.311 L 542.338 67.311 Q 548.099 67.311 551.121 69.785 L 551.121 69.785 L 551.121 69.785 Q 554.143 72.259 554.143 77.05 L 554.143 77.05 L 554.143 77.05 Q 554.143 83.187 549.023 86.569 L 549.023 86.569 L 549.023 86.569 Q 543.903 89.951 534.321 89.951 L 534.321 89.951 L 534.321 89.951 Q 526.994 89.951 523.127 87.399 L 523.127 87.399 L 523.127 87.399 Q 519.26 84.847 519.26 80.244 L 519.26 80.244 L 519.26 80.244 Q 519.26 77.081 521.232 74.952 L 521.232 74.952 L 521.232 74.952 Q 523.205 72.822 527.025 71.914 L 527.025 71.914 L 527.025 71.914 Q 525.554 71.288 524.458 69.863 L 524.458 69.863 L 524.458 69.863 Q 523.362 68.438 523.362 66.841 L 523.362 66.841 L 523.362 66.841 Q 523.362 64.837 524.52 63.507 L 524.52 63.507 L 524.52 63.507 Q 525.679 62.176 527.871 60.892 L 527.871 60.892 L 527.871 60.892 Q 525.115 59.702 523.503 57.072 L 523.503 57.072 L 523.503 57.072 Q 521.89 54.441 521.89 50.872 L 521.89 50.872 L 521.89 50.872 Q 521.89 45.141 525.616 42.01 L 525.616 42.01 L 525.616 42.01 Q 529.343 38.879 536.263 38.879 L 536.263 38.879 L 536.263 38.879 Q 537.734 38.879 539.754 39.145 L 539.754 39.145 L 539.754 39.145 Q 541.774 39.411 542.338 39.536 L 542.338 39.536 L 542.338 39.536 Z  M 527.526 79.492 L 527.526 79.492 L 527.526 79.492 Q 527.526 81.465 529.421 82.592 L 529.421 82.592 L 529.421 82.592 Q 531.315 83.719 534.728 83.719 L 534.728 83.719 L 534.728 83.719 Q 539.864 83.719 542.776 82.31 L 542.776 82.31 L 542.776 82.31 Q 545.688 80.901 545.688 78.459 L 545.688 78.459 L 545.688 78.459 Q 545.688 76.486 543.966 75.734 L 543.966 75.734 L 543.966 75.734 Q 542.244 74.983 538.643 74.983 L 538.643 74.983 L 533.695 74.983 L 533.695 74.983 Q 531.065 74.983 529.296 76.22 L 529.296 76.22 L 529.296 76.22 Q 527.526 77.457 527.526 79.492 Z  M 531.002 50.997 L 531.002 50.997 L 531.002 50.997 Q 531.002 53.847 532.302 55.506 L 532.302 55.506 L 532.302 55.506 Q 533.601 57.166 536.263 57.166 L 536.263 57.166 L 536.263 57.166 Q 538.956 57.166 540.208 55.506 L 540.208 55.506 L 540.208 55.506 Q 541.461 53.847 541.461 50.997 L 541.461 50.997 L 541.461 50.997 Q 541.461 44.672 536.263 44.672 L 536.263 44.672 L 536.263 44.672 Q 531.002 44.672 531.002 50.997 Z  M 587.788 74.545 L 581.119 74.545 L 579.271 69.785 L 579.021 69.785 L 579.021 69.785 Q 576.609 72.822 574.057 73.997 L 574.057 73.997 L 574.057 73.997 Q 571.505 75.171 567.403 75.171 L 567.403 75.171 L 567.403 75.171 Q 562.362 75.171 559.465 72.29 L 559.465 72.29 L 559.465 72.29 Q 556.569 69.409 556.569 64.086 L 556.569 64.086 L 556.569 64.086 Q 556.569 58.512 560.467 55.866 L 560.467 55.866 L 560.467 55.866 Q 564.366 53.22 572.226 52.938 L 572.226 52.938 L 578.3 52.751 L 578.3 51.216 L 578.3 51.216 Q 578.3 45.893 572.852 45.893 L 572.852 45.893 L 572.852 45.893 Q 568.656 45.893 562.988 48.429 L 562.988 48.429 L 559.826 41.979 L 559.826 41.979 Q 565.869 38.816 573.228 38.816 L 573.228 38.816 L 573.228 38.816 Q 580.273 38.816 584.031 41.885 L 584.031 41.885 L 584.031 41.885 Q 587.788 44.954 587.788 51.216 L 587.788 51.216 L 587.788 74.545 L 587.788 74.545 Z  M 578.3 61.205 L 578.3 58.324 L 574.605 58.45 L 574.605 58.45 Q 570.441 58.575 568.405 59.953 L 568.405 59.953 L 568.405 59.953 Q 566.37 61.33 566.37 64.149 L 566.37 64.149 L 566.37 64.149 Q 566.37 68.188 571.004 68.188 L 571.004 68.188 L 571.004 68.188 Q 574.324 68.188 576.312 66.278 L 576.312 66.278 L 576.312 66.278 Q 578.3 64.368 578.3 61.205 L 578.3 61.205 L 578.3 61.205 Z  M 628.511 51.717 L 628.511 74.545 L 618.96 74.545 L 618.96 54.097 L 618.96 54.097 Q 618.96 50.308 617.614 48.414 L 617.614 48.414 L 617.614 48.414 Q 616.267 46.519 613.324 46.519 L 613.324 46.519 L 613.324 46.519 Q 609.316 46.519 607.531 49.197 L 607.531 49.197 L 607.531 49.197 Q 605.746 51.874 605.746 58.074 L 605.746 58.074 L 605.746 74.545 L 596.195 74.545 L 596.195 39.536 L 603.491 39.536 L 604.775 44.014 L 605.308 44.014 L 605.308 44.014 Q 606.905 41.478 609.707 40.178 L 609.707 40.178 L 609.707 40.178 Q 612.51 38.879 616.079 38.879 L 616.079 38.879 L 616.079 38.879 Q 622.185 38.879 625.348 42.182 L 625.348 42.182 L 625.348 42.182 Q 628.511 45.486 628.511 51.717 L 628.511 51.717 L 628.511 51.717 Z  M 139.232 36.186 L 139.232 36.186 L 139.232 36.186 Q 133.752 36.186 130.746 40.304 L 130.746 40.304 L 130.746 40.304 Q 127.74 44.421 127.74 51.78 L 127.74 51.78 L 127.74 51.78 Q 127.74 67.092 139.232 67.092 L 139.232 67.092 L 139.232 67.092 Q 144.054 67.092 150.912 64.681 L 150.912 64.681 L 150.912 72.822 L 150.912 72.822 Q 145.275 75.171 138.324 75.171 L 138.324 75.171 L 138.324 75.171 Q 128.335 75.171 123.043 69.112 L 123.043 69.112 L 123.043 69.112 Q 117.751 63.053 117.751 51.717 L 117.751 51.717 L 117.751 51.717 Q 117.751 44.578 120.35 39.208 L 120.35 39.208 L 120.35 39.208 Q 122.949 33.837 127.818 30.972 L 127.818 30.972 L 127.818 30.972 Q 132.687 28.107 139.232 28.107 L 139.232 28.107 L 139.232 28.107 Q 145.902 28.107 152.634 31.332 L 152.634 31.332 L 149.503 39.223 L 149.503 39.223 Q 146.935 38.002 144.336 37.094 L 144.336 37.094 L 144.336 37.094 Q 141.737 36.186 139.232 36.186 Z  M 178.013 38.879 L 178.013 38.879 L 178.013 38.879 Q 179.954 38.879 181.238 39.161 L 181.238 39.161 L 180.518 48.116 L 180.518 48.116 Q 179.359 47.803 177.7 47.803 L 177.7 47.803 L 177.7 47.803 Q 173.128 47.803 170.576 50.152 L 170.576 50.152 L 170.576 50.152 Q 168.024 52.5 168.024 56.727 L 168.024 56.727 L 168.024 74.545 L 158.474 74.545 L 158.474 39.536 L 165.707 39.536 L 167.116 45.423 L 167.586 45.423 L 167.586 45.423 Q 169.214 42.48 171.985 40.679 L 171.985 40.679 L 171.985 40.679 Q 174.756 38.879 178.013 38.879 Z  M 215.072 74.545 L 208.402 74.545 L 206.555 69.785 L 206.304 69.785 L 206.304 69.785 Q 203.893 72.822 201.341 73.997 L 201.341 73.997 L 201.341 73.997 Q 198.789 75.171 194.687 75.171 L 194.687 75.171 L 194.687 75.171 Q 189.645 75.171 186.749 72.29 L 186.749 72.29 L 186.749 72.29 Q 183.853 69.409 183.853 64.086 L 183.853 64.086 L 183.853 64.086 Q 183.853 58.512 187.751 55.866 L 187.751 55.866 L 187.751 55.866 Q 191.649 53.22 199.509 52.938 L 199.509 52.938 L 205.584 52.751 L 205.584 51.216 L 205.584 51.216 Q 205.584 45.893 200.135 45.893 L 200.135 45.893 L 200.135 45.893 Q 195.939 45.893 190.272 48.429 L 190.272 48.429 L 187.109 41.979 L 187.109 41.979 Q 193.153 38.816 200.511 38.816 L 200.511 38.816 L 200.511 38.816 Q 207.557 38.816 211.314 41.885 L 211.314 41.885 L 211.314 41.885 Q 215.072 44.954 215.072 51.216 L 215.072 51.216 L 215.072 74.545 L 215.072 74.545 Z  M 205.584 61.205 L 205.584 58.324 L 201.889 58.45 L 201.889 58.45 Q 197.724 58.575 195.689 59.953 L 195.689 59.953 L 195.689 59.953 Q 193.654 61.33 193.654 64.149 L 193.654 64.149 L 193.654 64.149 Q 193.654 68.188 198.288 68.188 L 198.288 68.188 L 198.288 68.188 Q 201.607 68.188 203.595 66.278 L 203.595 66.278 L 203.595 66.278 Q 205.584 64.368 205.584 61.205 L 205.584 61.205 L 205.584 61.205 Z  M 242.956 38.879 L 242.956 38.879 L 242.956 38.879 Q 249.156 38.879 252.663 43.717 L 252.663 43.717 L 252.663 43.717 Q 256.17 48.555 256.17 56.978 L 256.17 56.978 L 256.17 56.978 Q 256.17 65.652 252.553 70.411 L 252.553 70.411 L 252.553 70.411 Q 248.937 75.171 242.705 75.171 L 242.705 75.171 L 242.705 75.171 Q 236.537 75.171 233.029 70.693 L 233.029 70.693 L 232.372 70.693 L 230.775 74.545 L 223.479 74.545 L 223.479 25.821 L 233.029 25.821 L 233.029 37.157 L 233.029 37.157 Q 233.029 39.317 232.654 44.077 L 232.654 44.077 L 233.029 44.077 L 233.029 44.077 Q 236.38 38.879 242.956 38.879 Z  M 239.887 46.519 L 239.887 46.519 L 239.887 46.519 Q 236.349 46.519 234.72 48.696 L 234.72 48.696 L 234.72 48.696 Q 233.092 50.872 233.029 55.882 L 233.029 55.882 L 233.029 56.915 L 233.029 56.915 Q 233.029 62.552 234.705 64.994 L 234.705 64.994 L 234.705 64.994 Q 236.38 67.436 240.012 67.436 L 240.012 67.436 L 240.012 67.436 Q 242.956 67.436 244.694 64.728 L 244.694 64.728 L 244.694 64.728 Q 246.432 62.019 246.432 56.853 L 246.432 56.853 L 246.432 56.853 Q 246.432 51.686 244.678 49.103 L 244.678 49.103 L 244.678 49.103 Q 242.924 46.519 239.887 46.519 Z  M 277.384 67.562 L 277.384 67.562 L 277.384 67.562 Q 279.889 67.562 283.396 66.466 L 283.396 66.466 L 283.396 73.574 L 283.396 73.574 Q 279.827 75.171 274.629 75.171 L 274.629 75.171 L 274.629 75.171 Q 268.898 75.171 266.284 72.274 L 266.284 72.274 L 266.284 72.274 Q 263.669 69.378 263.669 63.585 L 263.669 63.585 L 263.669 46.707 L 259.097 46.707 L 259.097 42.668 L 264.358 39.474 L 267.114 32.084 L 273.22 32.084 L 273.22 39.536 L 283.021 39.536 L 283.021 46.707 L 273.22 46.707 L 273.22 63.585 L 273.22 63.585 Q 273.22 65.62 274.363 66.591 L 274.363 66.591 L 274.363 66.591 Q 275.505 67.562 277.384 67.562 Z  M 308.587 38.879 L 308.587 38.879 L 308.587 38.879 Q 310.529 38.879 311.813 39.161 L 311.813 39.161 L 311.093 48.116 L 311.093 48.116 Q 309.934 47.803 308.274 47.803 L 308.274 47.803 L 308.274 47.803 Q 303.703 47.803 301.151 50.152 L 301.151 50.152 L 301.151 50.152 Q 298.599 52.5 298.599 56.727 L 298.599 56.727 L 298.599 74.545 L 289.048 74.545 L 289.048 39.536 L 296.281 39.536 L 297.691 45.423 L 298.16 45.423 L 298.16 45.423 Q 299.788 42.48 302.56 40.679 L 302.56 40.679 L 302.56 40.679 Q 305.331 38.879 308.587 38.879 Z  M 331.242 45.674 L 331.242 45.674 L 331.242 45.674 Q 328.205 45.674 326.483 47.6 L 326.483 47.6 L 326.483 47.6 Q 324.76 49.525 324.51 53.064 L 324.51 53.064 L 337.912 53.064 L 337.912 53.064 Q 337.849 49.525 336.064 47.6 L 336.064 47.6 L 336.064 47.6 Q 334.28 45.674 331.242 45.674 Z  M 332.589 75.171 L 332.589 75.171 L 332.589 75.171 Q 324.134 75.171 319.375 70.505 L 319.375 70.505 L 319.375 70.505 Q 314.615 65.839 314.615 57.291 L 314.615 57.291 L 314.615 57.291 Q 314.615 48.492 319.014 43.685 L 319.014 43.685 L 319.014 43.685 Q 323.414 38.879 331.18 38.879 L 331.18 38.879 L 331.18 38.879 Q 338.601 38.879 342.734 43.106 L 342.734 43.106 L 342.734 43.106 Q 346.867 47.333 346.867 54.786 L 346.867 54.786 L 346.867 59.42 L 324.291 59.42 L 324.291 59.42 Q 324.447 63.491 326.702 65.777 L 326.702 65.777 L 326.702 65.777 Q 328.956 68.063 333.027 68.063 L 333.027 68.063 L 333.027 68.063 Q 336.19 68.063 339.008 67.405 L 339.008 67.405 L 339.008 67.405 Q 341.826 66.748 344.895 65.307 L 344.895 65.307 L 344.895 72.697 L 344.895 72.697 Q 342.39 73.95 339.54 74.56 L 339.54 74.56 L 339.54 74.56 Q 336.691 75.171 332.589 75.171 Z  M 367.706 45.674 L 367.706 45.674 L 367.706 45.674 Q 364.669 45.674 362.946 47.6 L 362.946 47.6 L 362.946 47.6 Q 361.224 49.525 360.974 53.064 L 360.974 53.064 L 374.376 53.064 L 374.376 53.064 Q 374.313 49.525 372.528 47.6 L 372.528 47.6 L 372.528 47.6 Q 370.743 45.674 367.706 45.674 Z  M 369.053 75.171 L 369.053 75.171 L 369.053 75.171 Q 360.598 75.171 355.838 70.505 L 355.838 70.505 L 355.838 70.505 Q 351.079 65.839 351.079 57.291 L 351.079 57.291 L 351.079 57.291 Q 351.079 48.492 355.478 43.685 L 355.478 43.685 L 355.478 43.685 Q 359.878 38.879 367.643 38.879 L 367.643 38.879 L 367.643 38.879 Q 375.065 38.879 379.198 43.106 L 379.198 43.106 L 379.198 43.106 Q 383.331 47.333 383.331 54.786 L 383.331 54.786 L 383.331 59.42 L 360.755 59.42 L 360.755 59.42 Q 360.911 63.491 363.166 65.777 L 363.166 65.777 L 363.166 65.777 Q 365.42 68.063 369.491 68.063 L 369.491 68.063 L 369.491 68.063 Q 372.654 68.063 375.472 67.405 L 375.472 67.405 L 375.472 67.405 Q 378.29 66.748 381.359 65.307 L 381.359 65.307 L 381.359 72.697 L 381.359 72.697 Q 378.854 73.95 376.004 74.56 L 376.004 74.56 L 376.004 74.56 Q 373.155 75.171 369.053 75.171 Z  M 388.826 28.765 L 397.563 28.765 L 396.279 45.298 L 390.11 45.298 L 388.826 28.765 L 388.826 28.765 Z  M 429.737 64.149 L 429.737 64.149 L 429.737 64.149 Q 429.737 69.534 425.995 72.353 L 425.995 72.353 L 425.995 72.353 Q 422.253 75.171 414.8 75.171 L 414.8 75.171 L 414.8 75.171 Q 410.98 75.171 408.287 74.654 L 408.287 74.654 L 408.287 74.654 Q 405.594 74.137 403.246 73.135 L 403.246 73.135 L 403.246 65.245 L 403.246 65.245 Q 405.907 66.497 409.242 67.343 L 409.242 67.343 L 409.242 67.343 Q 412.577 68.188 415.113 68.188 L 415.113 68.188 L 415.113 68.188 Q 420.311 68.188 420.311 65.182 L 420.311 65.182 L 420.311 65.182 Q 420.311 64.055 419.623 63.35 L 419.623 63.35 L 419.623 63.35 Q 418.934 62.646 417.243 61.753 L 417.243 61.753 L 417.243 61.753 Q 415.552 60.861 412.734 59.671 L 412.734 59.671 L 412.734 59.671 Q 408.694 57.98 406.8 56.539 L 406.8 56.539 L 406.8 56.539 Q 404.905 55.099 404.044 53.236 L 404.044 53.236 L 404.044 53.236 Q 403.183 51.373 403.183 48.649 L 403.183 48.649 L 403.183 48.649 Q 403.183 43.983 406.8 41.431 L 406.8 41.431 L 406.8 41.431 Q 410.417 38.879 417.055 38.879 L 417.055 38.879 L 417.055 38.879 Q 423.38 38.879 429.361 41.634 L 429.361 41.634 L 426.48 48.523 L 426.48 48.523 Q 423.85 47.396 421.564 46.676 L 421.564 46.676 L 421.564 46.676 Q 419.278 45.956 416.898 45.956 L 416.898 45.956 L 416.898 45.956 Q 412.671 45.956 412.671 48.241 L 412.671 48.241 L 412.671 48.241 Q 412.671 49.525 414.033 50.465 L 414.033 50.465 L 414.033 50.465 Q 415.395 51.404 419.998 53.252 L 419.998 53.252 L 419.998 53.252 Q 424.1 54.911 426.01 56.352 L 426.01 56.352 L 426.01 56.352 Q 427.921 57.792 428.829 59.671 L 428.829 59.671 L 428.829 59.671 Q 429.737 61.55 429.737 64.149 Z " fill-rule="evenodd" fill="rgb(0,0,0)"/></g></svg>