<?xml version="1.0" standalone="no"?><!-- Generator: Gravit.io --><svg xmlns="http://www.w3.org/2000/svg" xmlns:xlink="http://www.w3.org/1999/xlink" style="isolation:isolate" viewBox="0 0 541 96.326" width="541" height="96.326"><defs><clipPath id="_clipPath_0afDsuW2bjtX0tQqxocHm6lCGVOHLUes"><rect width="541" height="96.326"/></clipPath></defs><g clip-path="url(#_clipPath_0afDsuW2bjtX0tQqxocHm6lCGVOHLUes)"><g filter="url(#Gk76cVvx1mpV3etN0jbNbJ9FCaJvd0hP)"><path d=" M 7.276 10.903 L 14.035 6.81 L 33.265 6.143 Q 33.424 8.587 31.932 9.57 Q 29.679 9.729 29.552 11.284 Q 29.425 12.839 27.839 52.218 Q 27.807 53.456 29.171 53.456 Q 30.536 53.456 56.588 52.885 L 47.544 49.172 Q 37.104 44.476 37.454 35.749 Q 37.803 27.023 47.068 19.947 Q 59.634 10.776 70.582 17.567 Q 72.422 16.869 74.104 15.377 Q 75.786 14.203 77.055 16.615 Q 78.324 19.026 83.909 29.181 Q 84.703 31.243 83.148 32.227 Q 81.593 33.211 76.865 35.844 Q 74.993 35.813 74.199 34.131 L 72.866 32.703 Q 62.68 24.706 56.874 26.515 Q 55.128 27.943 55.636 30.228 Q 57.73 32.1 58.968 32.513 Q 60.205 32.925 72.39 39.367 Q 83.56 45.396 84.956 52.218 Q 86.353 59.041 85.147 66.783 C 84.909 75.303 77.483 81.205 76.008 82.395 C 74.532 83.585 72.533 85.87 66.869 86.108 C 61.205 86.346 57.411 83.954 54.303 82.967 L 51.828 82.395 L 50.971 82.205 L 51.352 83.252 L 51.352 83.918 Q 51.479 85.029 50.686 86.394 Q 49.956 90.233 47.068 90.297 Q 45.831 90.614 44.022 87.536 L 40.024 80.587 L 37.073 75.732 L 36.311 74.208 Q 35.899 73.352 36.692 72.114 Q 37.485 70.877 37.834 70.401 L 37.834 70.21 L 4.04 70.972 Q 3.722 68.751 5.944 68.021 Q 8.165 67.291 8.133 65.736 L 10.513 15.282 Q 10.196 14.901 9.371 14.616 Q 8.546 14.33 8.133 14.235 L 7.276 13.664 L 7.276 10.903 Z  M 44.593 70.21 L 52.209 70.21 Q 53.415 69.988 53.351 70.972 L 52.495 72.305 Q 53.097 74.494 55.065 73.732 Q 57.73 70.686 59.253 68.116 Q 60.777 65.546 65.06 58.025 Q 71.692 61.674 71.915 66.783 Q 71.248 72.558 65.917 75.065 Q 63.569 76.303 56.969 75.446 Q 51.162 73.859 48.401 72.495 Q 45.64 71.13 44.593 70.21 Z " fill-rule="evenodd" fill="rgb(30,29,21)"/><g><path d=" M 72.866 17.567 L 73.533 16.9 L 74.58 16.139 Q 75.157 15.99 75.342 16.139 Q 75.526 16.288 82.672 29.371 Q 83.011 30.371 82.767 31.085 L 81.339 31.846 L 80.958 31.846 L 75.437 27.848 L 71.343 24.802 L 68.107 22.612 Q 54.747 18.122 52.78 27.182 Q 52.225 30.656 60.301 34.512 Q 68.376 38.367 76.008 43.175 Q 79.784 45.745 83.148 50.79 Q 84.512 53.551 84.48 58.025 Q 84.449 62.499 83.909 66.783 Q 81.72 72.574 78.578 74.684 Q 67.464 84.061 56.874 80.872 L 51.162 79.063 Q 48.377 79.206 50.591 82.205 Q 51.233 84.775 50.305 85.632 Q 49.282 85.537 48.496 84.109 Q 47.711 82.681 40.5 69.639 Q 39.096 67.64 41.071 66.117 Q 41.571 65.879 41.928 66.593 Q 42.285 67.307 44.403 71.543 L 44.974 72.305 Q 64.37 82.229 73.533 70.401 Q 80.363 60.215 68.107 51.742 L 55.636 44.888 L 50.495 42.413 Q 41.071 36.773 41.452 30.037 Q 41.833 23.302 52.495 17.948 Q 61.276 13.521 68.297 17.376 Q 71.724 19.399 73.533 21.279 Q 74.437 21.256 74.294 20.232 Q 74.152 19.209 72.866 17.567 Z " fill="rgb(241,226,203)"/><path d=" M 14.035 7.571 L 32.218 7 Q 31.754 8.297 31.266 8.428 C 30.778 8.559 28.065 9.118 27.934 11.95 Q 27.803 14.782 26.125 51.837 Q 26.351 54.491 28.886 54.503 Q 31.42 54.515 61.538 53.741 Q 63.561 53.753 64.965 51.552 Q 66.369 49.35 65.727 50.219 L 68.107 51.742 L 57.73 68.306 Q 56.921 68.758 56.493 68.306 C 56.064 67.854 55.684 68.14 55.826 66.783 L 56.588 65.26 Q 57.314 63.761 56.017 63.166 L 47.068 63.261 L 41.452 63.261 L 11.655 63.927 Q 11.965 61.345 13.75 60.976 Q 15.475 60.31 15.368 57.835 Q 15.261 55.36 17.653 11.95 Q 17.593 10.582 15.273 10.522 Q 14.095 10.201 14.035 9.19 Q 13.976 8.178 14.035 7.571 Z " fill="rgb(241,226,203)"/></g><g filter="url(#UTqvalSOmEkcCsVV9kGcwTheSbwLCJuF)"><defs><filter id="SPFQdBE5Ko7wIj3axrbSmH5IRnperr5h" x="-200%" y="-200%" width="400%" height="400%" filterUnits="objectBoundingBox" color-interpolation-filters="sRGB"><feOffset xmlns="http://www.w3.org/2000/svg" in="SourceGraphic" dx="0.1" dy="0.1"/><feGaussianBlur xmlns="http://www.w3.org/2000/svg" stdDeviation="2.146804531419514" result="pf_100_offsetBlur"/><feComposite xmlns="http://www.w3.org/2000/svg" in="SourceGraphic" in2="pf_100_offsetBlur" result="pf_100_inverse" operator="out"/><feFlood xmlns="http://www.w3.org/2000/svg" flood-color="#514336" flood-opacity="1" result="pf_100_color"/><feComposite xmlns="http://www.w3.org/2000/svg" in="pf_100_color" in2="pf_100_inverse" operator="in" result="pf_100_shadow"/><feComposite xmlns="http://www.w3.org/2000/svg" in="pf_100_shadow" in2="SourceGraphic" operator="over"/></filter></defs><g filter="url(#SPFQdBE5Ko7wIj3axrbSmH5IRnperr5h)"><circle vector-effect="non-scaling-stroke" cx="21.888941554419162" cy="19.137508014721398" r="0.5235787771056373" fill="rgb(178,177,175)"/></g><defs><filter id="S32z1OAu03uc8shb05CYJwCYLJA58xv1" x="-200%" y="-200%" width="400%" height="400%" filterUnits="objectBoundingBox" color-interpolation-filters="sRGB"><feOffset xmlns="http://www.w3.org/2000/svg" in="SourceGraphic" dx="0.1" dy="0.1"/><feGaussianBlur xmlns="http://www.w3.org/2000/svg" stdDeviation="2.146804531419514" result="pf_100_offsetBlur"/><feComposite xmlns="http://www.w3.org/2000/svg" in="SourceGraphic" in2="pf_100_offsetBlur" result="pf_100_inverse" operator="out"/><feFlood xmlns="http://www.w3.org/2000/svg" flood-color="#514336" flood-opacity="1" result="pf_100_color"/><feComposite xmlns="http://www.w3.org/2000/svg" in="pf_100_color" in2="pf_100_inverse" operator="in" result="pf_100_shadow"/><feComposite xmlns="http://www.w3.org/2000/svg" in="pf_100_shadow" in2="SourceGraphic" operator="over"/></filter></defs><g filter="url(#S32z1OAu03uc8shb05CYJwCYLJA58xv1)"><circle vector-effect="non-scaling-stroke" cx="48.16307655099298" cy="29.98986812200198" r="0.5235787771056408" fill="rgb(147,145,147)"/></g><defs><filter id="N6TxbABMPXjF9YVMbS5MGEl1Az4qw6fw" x="-200%" y="-200%" width="400%" height="400%" filterUnits="objectBoundingBox" color-interpolation-filters="sRGB"><feOffset xmlns="http://www.w3.org/2000/svg" in="SourceGraphic" dx="0.1" dy="0.1"/><feGaussianBlur xmlns="http://www.w3.org/2000/svg" stdDeviation="2.146804531419514" result="pf_100_offsetBlur"/><feComposite xmlns="http://www.w3.org/2000/svg" in="SourceGraphic" in2="pf_100_offsetBlur" result="pf_100_inverse" operator="out"/><feFlood xmlns="http://www.w3.org/2000/svg" flood-color="#514336" flood-opacity="1" result="pf_100_color"/><feComposite xmlns="http://www.w3.org/2000/svg" in="pf_100_color" in2="pf_100_inverse" operator="in" result="pf_100_shadow"/><feComposite xmlns="http://www.w3.org/2000/svg" in="pf_100_shadow" in2="SourceGraphic" operator="over"/></filter></defs><g filter="url(#N6TxbABMPXjF9YVMbS5MGEl1Az4qw6fw)"><circle vector-effect="non-scaling-stroke" cx="78.0546649166603" cy="26.658003176784327" r="0.5235787771056408" fill="rgb(91,84,74)"/></g><defs><filter id="YyAiOQ3pmrDfEaBX41V9Ctlek8B0oR8N" x="-200%" y="-200%" width="400%" height="400%" filterUnits="objectBoundingBox" color-interpolation-filters="sRGB"><feOffset xmlns="http://www.w3.org/2000/svg" in="SourceGraphic" dx="0.1" dy="0.1"/><feGaussianBlur xmlns="http://www.w3.org/2000/svg" stdDeviation="2.146804531419514" result="pf_100_offsetBlur"/><feComposite xmlns="http://www.w3.org/2000/svg" in="SourceGraphic" in2="pf_100_offsetBlur" result="pf_100_inverse" operator="out"/><feFlood xmlns="http://www.w3.org/2000/svg" flood-color="#514336" flood-opacity="1" result="pf_100_color"/><feComposite xmlns="http://www.w3.org/2000/svg" in="pf_100_color" in2="pf_100_inverse" operator="in" result="pf_100_shadow"/><feComposite xmlns="http://www.w3.org/2000/svg" in="pf_100_shadow" in2="SourceGraphic" operator="over"/></filter></defs><g filter="url(#YyAiOQ3pmrDfEaBX41V9Ctlek8B0oR8N)"><circle vector-effect="non-scaling-stroke" cx="52.35170676783794" cy="60.928614041880564" r="0.5235787771056408" fill="rgb(78,73,69)"/></g><defs><filter id="yo2hMb6xqU8zHcwRt5Ok7LFFyfCfTWfb" x="-200%" y="-200%" width="400%" height="400%" filterUnits="objectBoundingBox" color-interpolation-filters="sRGB"><feOffset xmlns="http://www.w3.org/2000/svg" in="SourceGraphic" dx="0.1" dy="0.1"/><feGaussianBlur xmlns="http://www.w3.org/2000/svg" stdDeviation="2.146804531419514" result="pf_100_offsetBlur"/><feComposite xmlns="http://www.w3.org/2000/svg" in="SourceGraphic" in2="pf_100_offsetBlur" result="pf_100_inverse" operator="out"/><feFlood xmlns="http://www.w3.org/2000/svg" flood-color="#514336" flood-opacity="1" result="pf_100_color"/><feComposite xmlns="http://www.w3.org/2000/svg" in="pf_100_color" in2="pf_100_inverse" operator="in" result="pf_100_shadow"/><feComposite xmlns="http://www.w3.org/2000/svg" in="pf_100_shadow" in2="SourceGraphic" operator="over"/></filter></defs><g filter="url(#yo2hMb6xqU8zHcwRt5Ok7LFFyfCfTWfb)"><circle vector-effect="non-scaling-stroke" cx="52.066118343962295" cy="77.87352719184457" r="0.5235787771056408" fill="rgb(78,73,69)"/></g><defs><filter id="EeamjWreVDwogjLb4FvL0I9Waln2CuO9" x="-200%" y="-200%" width="400%" height="400%" filterUnits="objectBoundingBox" color-interpolation-filters="sRGB"><feOffset xmlns="http://www.w3.org/2000/svg" in="SourceGraphic" dx="0.1" dy="0.1"/><feGaussianBlur xmlns="http://www.w3.org/2000/svg" stdDeviation="2.146804531419514" result="pf_100_offsetBlur"/><feComposite xmlns="http://www.w3.org/2000/svg" in="SourceGraphic" in2="pf_100_offsetBlur" result="pf_100_inverse" operator="out"/><feFlood xmlns="http://www.w3.org/2000/svg" flood-color="#514336" flood-opacity="1" result="pf_100_color"/><feComposite xmlns="http://www.w3.org/2000/svg" in="pf_100_color" in2="pf_100_inverse" operator="in" result="pf_100_shadow"/><feComposite xmlns="http://www.w3.org/2000/svg" in="pf_100_shadow" in2="SourceGraphic" operator="over"/></filter></defs><g filter="url(#EeamjWreVDwogjLb4FvL0I9Waln2CuO9)"><circle vector-effect="non-scaling-stroke" cx="77.1027035037409" cy="63.30851757417894" r="0.5235787771056408" fill="rgb(156,146,140)"/></g><defs><filter id="VuSvLLOc3WGoyNSUji0ysCfFl2aXZzU2" x="-200%" y="-200%" width="400%" height="400%" filterUnits="objectBoundingBox" color-interpolation-filters="sRGB"><feOffset xmlns="http://www.w3.org/2000/svg" in="SourceGraphic" dx="0.1" dy="0.1"/><feGaussianBlur xmlns="http://www.w3.org/2000/svg" stdDeviation="2.146804531419514" result="pf_100_offsetBlur"/><feComposite xmlns="http://www.w3.org/2000/svg" in="SourceGraphic" in2="pf_100_offsetBlur" result="pf_100_inverse" operator="out"/><feFlood xmlns="http://www.w3.org/2000/svg" flood-color="#514336" flood-opacity="1" result="pf_100_color"/><feComposite xmlns="http://www.w3.org/2000/svg" in="pf_100_color" in2="pf_100_inverse" operator="in" result="pf_100_shadow"/><feComposite xmlns="http://www.w3.org/2000/svg" in="pf_100_shadow" in2="SourceGraphic" operator="over"/></filter></defs><g filter="url(#VuSvLLOc3WGoyNSUji0ysCfFl2aXZzU2)"><circle vector-effect="non-scaling-stroke" cx="21.03217628279181" cy="59.310279639917646" r="0.5235787771056373" fill="rgb(183,181,180)"/></g></g><defs><filter id="UTqvalSOmEkcCsVV9kGcwTheSbwLCJuF" x="-200%" y="-200%" width="400%" height="400%" filterUnits="objectBoundingBox" color-interpolation-filters="sRGB"><feOffset xmlns="http://www.w3.org/2000/svg" in="SourceGraphic" dx="0" dy="0"/><feGaussianBlur xmlns="http://www.w3.org/2000/svg" stdDeviation="2.146804531419514" result="pf_100_offsetBlur"/><feComposite xmlns="http://www.w3.org/2000/svg" in="SourceGraphic" in2="pf_100_offsetBlur" result="pf_100_inverse" operator="out"/><feFlood xmlns="http://www.w3.org/2000/svg" flood-color="#000000" flood-opacity="0.5" result="pf_100_color"/><feComposite xmlns="http://www.w3.org/2000/svg" in="pf_100_color" in2="pf_100_inverse" operator="in" result="pf_100_shadow"/><feComposite xmlns="http://www.w3.org/2000/svg" in="pf_100_shadow" in2="SourceGraphic" operator="over"/></filter></defs></g><defs><filter id="Gk76cVvx1mpV3etN0jbNbJ9FCaJvd0hP" x="-200%" y="-200%" width="400%" height="400%" filterUnits="objectBoundingBox" color-interpolation-filters="sRGB"><feGaussianBlur xmlns="http://www.w3.org/2000/svg" in="SourceGraphic" stdDeviation="0.42936090628390283"/><feOffset xmlns="http://www.w3.org/2000/svg" dx="1" dy="1" result="pf_100_offsetBlur"/><feFlood xmlns="http://www.w3.org/2000/svg" flood-color="#000000" flood-opacity="0.65"/><feComposite xmlns="http://www.w3.org/2000/svg" in2="pf_100_offsetBlur" operator="in" result="pf_100_dropShadow"/><feBlend xmlns="http://www.w3.org/2000/svg" in="SourceGraphic" in2="pf_100_dropShadow" mode="normal"/></filter></defs><path d=" M 385.007 60.949 L 385.007 60.949 L 385.007 60.949 Q 385.007 67.149 380.545 70.718 L 380.545 70.718 L 380.545 70.718 Q 376.083 74.288 368.129 74.288 L 368.129 74.288 L 368.129 74.288 Q 360.802 74.288 355.165 71.533 L 355.165 71.533 L 355.165 62.514 L 355.165 62.514 Q 359.8 64.581 363.009 65.427 L 363.009 65.427 L 363.009 65.427 Q 366.219 66.272 368.881 66.272 L 368.881 66.272 L 368.881 66.272 Q 372.075 66.272 373.781 65.051 L 373.781 65.051 L 373.781 65.051 Q 375.488 63.83 375.488 61.418 L 375.488 61.418 L 375.488 61.418 Q 375.488 60.072 374.736 59.023 L 374.736 59.023 L 374.736 59.023 Q 373.985 57.974 372.529 57.003 L 372.529 57.003 L 372.529 57.003 Q 371.073 56.033 366.595 53.903 L 366.595 53.903 L 366.595 53.903 Q 362.399 51.931 360.301 50.114 L 360.301 50.114 L 360.301 50.114 Q 358.203 48.298 356.95 45.887 L 356.95 45.887 L 356.95 45.887 Q 355.698 43.476 355.698 40.251 L 355.698 40.251 L 355.698 40.251 Q 355.698 34.176 359.815 30.7 L 359.815 30.7 L 359.815 30.7 Q 363.933 27.224 371.198 27.224 L 371.198 27.224 L 371.198 27.224 Q 374.768 27.224 378.008 28.07 L 378.008 28.07 L 378.008 28.07 Q 381.249 28.915 384.788 30.45 L 384.788 30.45 L 381.656 37.996 L 381.656 37.996 Q 377.993 36.493 375.597 35.898 L 375.597 35.898 L 375.597 35.898 Q 373.202 35.303 370.885 35.303 L 370.885 35.303 L 370.885 35.303 Q 368.129 35.303 366.657 36.587 L 366.657 36.587 L 366.657 36.587 Q 365.186 37.871 365.186 39.938 L 365.186 39.938 L 365.186 39.938 Q 365.186 41.221 365.781 42.177 L 365.781 42.177 L 365.781 42.177 Q 366.376 43.132 367.675 44.024 L 367.675 44.024 L 367.675 44.024 Q 368.975 44.916 373.828 47.234 L 373.828 47.234 L 373.828 47.234 Q 380.247 50.302 382.627 53.387 L 382.627 53.387 L 382.627 53.387 Q 385.007 56.471 385.007 60.949 Z  M 430.364 73.662 L 419.905 73.662 L 416.586 62.765 L 399.896 62.765 L 396.577 73.662 L 386.118 73.662 L 402.276 27.694 L 414.143 27.694 L 430.364 73.662 L 430.364 73.662 Z  M 402.338 54.624 L 414.269 54.624 L 414.269 54.624 Q 409.666 39.812 409.086 37.871 L 409.086 37.871 L 409.086 37.871 Q 408.507 35.93 408.257 34.802 L 408.257 34.802 L 408.257 34.802 Q 407.223 38.81 402.338 54.624 L 402.338 54.624 L 402.338 54.624 Z  M 462.976 73.662 L 434.7 73.662 L 434.7 27.882 L 444.407 27.882 L 444.407 65.646 L 462.976 65.646 L 462.976 73.662 L 462.976 73.662 Z  M 495.87 65.646 L 495.87 73.662 L 469.504 73.662 L 469.504 27.882 L 495.87 27.882 L 495.87 35.836 L 479.212 35.836 L 479.212 45.887 L 494.712 45.887 L 494.712 53.841 L 479.212 53.841 L 479.212 65.646 L 495.87 65.646 L 495.87 65.646 Z  M 531.019 60.949 L 531.019 60.949 L 531.019 60.949 Q 531.019 67.149 526.557 70.718 L 526.557 70.718 L 526.557 70.718 Q 522.095 74.288 514.141 74.288 L 514.141 74.288 L 514.141 74.288 Q 506.814 74.288 501.177 71.533 L 501.177 71.533 L 501.177 62.514 L 501.177 62.514 Q 505.812 64.581 509.021 65.427 L 509.021 65.427 L 509.021 65.427 Q 512.231 66.272 514.893 66.272 L 514.893 66.272 L 514.893 66.272 Q 518.087 66.272 519.793 65.051 L 519.793 65.051 L 519.793 65.051 Q 521.5 63.83 521.5 61.418 L 521.5 61.418 L 521.5 61.418 Q 521.5 60.072 520.748 59.023 L 520.748 59.023 L 520.748 59.023 Q 519.997 57.974 518.541 57.003 L 518.541 57.003 L 518.541 57.003 Q 517.084 56.033 512.607 53.903 L 512.607 53.903 L 512.607 53.903 Q 508.411 51.931 506.313 50.114 L 506.313 50.114 L 506.313 50.114 Q 504.215 48.298 502.962 45.887 L 502.962 45.887 L 502.962 45.887 Q 501.71 43.476 501.71 40.251 L 501.71 40.251 L 501.71 40.251 Q 501.71 34.176 505.827 30.7 L 505.827 30.7 L 505.827 30.7 Q 509.945 27.224 517.21 27.224 L 517.21 27.224 L 517.21 27.224 Q 520.779 27.224 524.02 28.07 L 524.02 28.07 L 524.02 28.07 Q 527.261 28.915 530.8 30.45 L 530.8 30.45 L 527.668 37.996 L 527.668 37.996 Q 524.005 36.493 521.609 35.898 L 521.609 35.898 L 521.609 35.898 Q 519.214 35.303 516.897 35.303 L 516.897 35.303 L 516.897 35.303 Q 514.141 35.303 512.669 36.587 L 512.669 36.587 L 512.669 36.587 Q 511.198 37.871 511.198 39.938 L 511.198 39.938 L 511.198 39.938 Q 511.198 41.221 511.793 42.177 L 511.793 42.177 L 511.793 42.177 Q 512.388 43.132 513.687 44.024 L 513.687 44.024 L 513.687 44.024 Q 514.987 44.916 519.84 47.234 L 519.84 47.234 L 519.84 47.234 Q 526.259 50.302 528.639 53.387 L 528.639 53.387 L 528.639 53.387 Q 531.019 56.471 531.019 60.949 Z  M 148.062 73.662 L 119.786 73.662 L 119.786 27.882 L 129.494 27.882 L 129.494 65.646 L 148.062 65.646 L 148.062 73.662 L 148.062 73.662 Z  M 196.143 50.709 L 196.143 50.709 L 196.143 50.709 Q 196.143 62.076 190.507 68.182 L 190.507 68.182 L 190.507 68.182 Q 184.871 74.288 174.349 74.288 L 174.349 74.288 L 174.349 74.288 Q 163.828 74.288 158.192 68.182 L 158.192 68.182 L 158.192 68.182 Q 152.555 62.076 152.555 50.647 L 152.555 50.647 L 152.555 50.647 Q 152.555 39.217 158.207 33.19 L 158.207 33.19 L 158.207 33.19 Q 163.859 27.162 174.412 27.162 L 174.412 27.162 L 174.412 27.162 Q 184.964 27.162 190.554 33.237 L 190.554 33.237 L 190.554 33.237 Q 196.143 39.311 196.143 50.709 Z  M 162.732 50.709 L 162.732 50.709 L 162.732 50.709 Q 162.732 58.381 165.644 62.264 L 165.644 62.264 L 165.644 62.264 Q 168.556 66.147 174.349 66.147 L 174.349 66.147 L 174.349 66.147 Q 185.966 66.147 185.966 50.709 L 185.966 50.709 L 185.966 50.709 Q 185.966 35.241 174.412 35.241 L 174.412 35.241 L 174.412 35.241 Q 168.619 35.241 165.676 39.139 L 165.676 39.139 L 165.676 39.139 Q 162.732 43.038 162.732 50.709 Z  M 221.585 56.033 L 221.585 47.954 L 239.747 47.954 L 239.747 71.689 L 239.747 71.689 Q 235.331 73.13 231.433 73.709 L 231.433 73.709 L 231.433 73.709 Q 227.534 74.288 223.464 74.288 L 223.464 74.288 L 223.464 74.288 Q 213.099 74.288 207.635 68.198 L 207.635 68.198 L 207.635 68.198 Q 202.171 62.107 202.171 50.709 L 202.171 50.709 L 202.171 50.709 Q 202.171 39.624 208.512 33.424 L 208.512 33.424 L 208.512 33.424 Q 214.853 27.224 226.094 27.224 L 226.094 27.224 L 226.094 27.224 Q 233.139 27.224 239.684 30.043 L 239.684 30.043 L 236.459 37.808 L 236.459 37.808 Q 231.449 35.303 226.031 35.303 L 226.031 35.303 L 226.031 35.303 Q 219.737 35.303 215.949 39.531 L 215.949 39.531 L 215.949 39.531 Q 212.16 43.758 212.16 50.897 L 212.16 50.897 L 212.16 50.897 Q 212.16 58.35 215.213 62.28 L 215.213 62.28 L 215.213 62.28 Q 218.266 66.209 224.09 66.209 L 224.09 66.209 L 224.09 66.209 Q 227.127 66.209 230.259 65.583 L 230.259 65.583 L 230.259 56.033 L 221.585 56.033 L 221.585 56.033 Z  M 287.702 73.662 L 277.244 73.662 L 273.924 62.765 L 257.235 62.765 L 253.915 73.662 L 243.457 73.662 L 259.614 27.694 L 271.482 27.694 L 287.702 73.662 L 287.702 73.662 Z  M 259.677 54.624 L 271.607 54.624 L 271.607 54.624 Q 267.004 39.812 266.425 37.871 L 266.425 37.871 L 266.425 37.871 Q 265.846 35.93 265.595 34.802 L 265.595 34.802 L 265.595 34.802 Q 264.562 38.81 259.677 54.624 L 259.677 54.624 L 259.677 54.624 Z  M 332.652 27.882 L 332.652 73.662 L 320.315 73.662 L 300.399 39.03 L 300.118 39.03 L 300.118 39.03 Q 300.713 48.204 300.713 52.118 L 300.713 52.118 L 300.713 73.662 L 292.039 73.662 L 292.039 27.882 L 304.282 27.882 L 324.166 62.17 L 324.385 62.17 L 324.385 62.17 Q 323.916 53.246 323.916 49.551 L 323.916 49.551 L 323.916 27.882 L 332.652 27.882 L 332.652 27.882 Z " fill-rule="evenodd" fill="rgb(0,0,0)"/></g></svg>